<?xml version="1.0" encoding="utf-8"?><svg xmlns="http://www.w3.org/2000/svg" xmlns:xlink="http://www.w3.org/1999/xlink"><symbol viewBox="0 0 50 50" id="arrow-right" xmlns="http://www.w3.org/2000/svg"><path d="M1 26h43.586l-6.293 6.293 1.414 1.414L48.414 25l-8.707-8.707-1.414 1.414L44.586 24H1z"/></symbol><symbol viewBox="0 0 20 20" id="arrow-up" xmlns="http://www.w3.org/2000/svg"><path d="M10.707 2.293a1 1 0 00-1.414 0L2.929 8.657a1 1 0 001.414 1.414L10 4.414l5.657 5.657a1 1 0 001.414-1.414l-6.364-6.364zM11 18V3H9v15h2z"/></symbol><symbol viewBox="0 0 256 256" id="award" xmlns="http://www.w3.org/2000/svg"><path d="M181.2 101.7c0-3.1-1.9-5.8-4.7-7-18.8-7.9-33.5-22.5-41.5-41.3-1.2-2.9-4-4.7-7.1-4.7-3.1 0-5.8 1.8-7.1 4.7-7.9 18.7-22.6 33.3-41.3 41.2-2.8 1.2-4.7 3.9-4.7 7s1.8 5.8 4.6 7.1c18 7.9 33 23.1 41.3 41.8 1.2 2.8 4 4.6 7 4.6s5.8-1.8 7-4.7c7.8-18.1 23.1-33.3 41.8-41.6 2.9-1.3 4.7-4.1 4.7-7.1zm-53.5 41c-8.9-17.8-23.4-32.4-40.6-41 17.8-8.6 32.1-22.8 40.7-40.6 8.7 17.9 23 32.2 41 40.7-17.8 9-32.5 23.6-41.1 40.9z"/><path d="M175.8 180.8c.9.3 2.1.7 3.6.6 2.4-.1 4.6-1.1 6.3-2.8 1.8-1.8 2.8-4.2 2.7-6.7-.2-15.8 9.8-29.6 24.8-34.3 1-.3 2.1-.8 2.9-1.5 2-1.5 3.3-3.7 3.6-6 .4-2.5-.2-5-1.7-7.1-9.4-12.7-9.5-29.7-.1-42.2l1.2-1.4.5-1.5c.8-2.4.5-5-.6-7.1-1.2-2.3-3.2-4-5.5-4.7-15-4.8-24.9-18.5-24.8-34.2 0-1.2-.2-2.3-.5-3.3-.8-2.3-2.5-4.2-4.8-5.4-2.3-1.1-4.7-1.2-7-.4-3.7 1.3-7.5 1.9-11.4 1.9-11.5 0-22.3-5.6-28.9-14.9-.7-.9-1.5-1.7-2.2-2.2-4.2-3-10.1-2-13.1 2.2-6.6 9.4-17.4 14.9-28.9 14.9-3.9 0-7.7-.6-11.3-1.9-3.2-1.1-7.3-.3-9.7 2.3-1.8 1.8-2.8 4.2-2.7 6.7.2 15.8-9.8 29.5-24.7 34.2-1.1.3-2 .8-3 1.5-4.1 3.1-5 9-1.9 13.2 9.4 12.7 9.4 29.7 0 42.4-.6.8-1.1 1.8-1.4 2.7-.7 2.4-.5 4.8.7 7.2 1.2 2.2 3.2 3.9 5.5 4.6 15 4.8 24.9 18.6 24.7 34.1-.1 1.2.1 2.3.5 3.4.8 2.3 2.5 4.2 4.8 5.4 2.3 1.1 4.7 1.2 7 .4 3.8-1.3 7.7-1.9 11.6-1.9 11.6 0 22 5.5 28.8 15 .6.8 1.4 1.6 2.2 2.2 1.6 1.2 3.5 1.8 5.4 1.8.5 0 1.1 0 1.6-.1 2.5-.4 4.7-1.8 6.1-3.8 8.6-13 24.7-18.3 39.7-13.3zm-47.7 7.6c-8.4-11.9-22.1-19-36.6-19-4.9 0-9.8.8-14.4 2.6.3-19.9-12.4-37.4-31.3-43.2 11.9-16.1 11.9-37.7-.1-53.5 19-5.9 31.7-23.2 31.6-43.2 4.5 1.5 9.3 2.3 14.1 2.3 14.6 0 28.3-7.1 36.4-19 8.4 11.9 22.2 19 36.8 19 4.9 0 9.8-.8 14.2-2.5-.2 19.7 12.3 37 31.1 43.2-11.7 16-11.7 37.3 0 53.4-18.9 6.1-31.5 23.5-31.1 43.2h-.1c-18.8-6.4-39.4.3-50.6 16.7z"/><path d="M96.9 193.5c-2.2-1.4-5.2-.8-6.6 1.4l-23.4 35.8L54 204.3l-26.8-.1 24.5-37.5c1.5-2.2.8-5.2-1.4-6.6-2.2-1.5-5.2-.8-6.6 1.4L9.5 213.8l38.6.1 17.7 36.2 32.6-50c1.4-2.2.7-5.2-1.5-6.6zm115.4-32.1c-1.5-2.2-4.4-2.8-6.6-1.4-2.2 1.5-2.8 4.4-1.4 6.6l24.6 37.6-26.8.1-12.9 26.4-23.5-35.9c-1.5-2.2-4.4-2.8-6.6-1.4-2.2 1.5-2.8 4.4-1.4 6.6l32.7 50.1 17.7-36.2 38.6-.1-34.4-52.4z"/></symbol><symbol viewBox="0 0 22 24" id="basket" xmlns="http://www.w3.org/2000/svg"><g clip-path="url(#ada)"><path d="M10.363 18.443a2.046 2.046 0 00-2.045 2.042 2.046 2.046 0 004.09 0 2.046 2.046 0 00-2.045-2.042zm6.134 0a2.046 2.046 0 00-2.045 2.042 2.046 2.046 0 004.089 0 2.046 2.046 0 00-2.044-2.042zm3.978-8.199L7.413 6.891a.614.614 0 00-.75.73L8.67 16.4h-.786L5.482 5.895a.613.613 0 00-.474-.464l-4.27-.882A.614.614 0 00.489 5.75l3.885.802L6.797 17.15a.613.613 0 00.598.477h12.07a.615.615 0 00.607-.53l.858-6.175a.613.613 0 00-.455-.678zm-8.14 3.91a.613.613 0 01-1.227 0v-2.696a.613.613 0 011.227 0v2.696zm2.625 0a.613.613 0 01-1.227 0v-1.88a.613.613 0 011.227 0v1.88zm2.625 0a.613.613 0 01-1.227 0v-1.226a.613.613 0 011.227 0v1.226z"/></g><path fill-rule="evenodd" clip-rule="evenodd" d="M16.268 4.568a2.996 2.996 0 00-1.693-.523c-.627 0-1.21.193-1.693.523-.28-.843-.492-1.752-.492-2.383C12.39.98 13.37 0 14.575 0s2.185.98 2.185 2.185c0 .631-.212 1.54-.492 2.383zm-4.722 2.274l.024.006v-.011l-.024.005zm4.972 1.217c-1.333-.33-2.766-.681-4.129-1.013a2.185 2.185 0 114.129 1.013zm4.436 1.103c-.866-.217-2.155-.538-3.618-.9a2.995 2.995 0 00.243-1.425c.87.18 1.762.45 2.308.765.596.344.969.928 1.067 1.56zM9.869 6.439c-.36-.086-.706-.167-1.03-.243a2.19 2.19 0 01-.376-2.667 2.188 2.188 0 013.147-.7c.098.738.338 1.599.61 2.353a3.01 3.01 0 00-.449.774c-.628.113-1.305.278-1.902.483zm10.124.075a3.43 3.43 0 01-.217.114c-.696-.295-1.587-.526-2.397-.672a3.01 3.01 0 00-.449-.774c.262-.727.494-1.553.599-2.273.095-.067.189-.128.278-.18a2.188 2.188 0 012.986.8 2.188 2.188 0 01-.8 2.985z"/><defs><clipPath id="ada"><path transform="translate(0 3.064)" d="M0 0h20.936v20.936H0z"/></clipPath></defs></symbol><symbol viewBox="0 0 48 48" id="camera" xmlns="http://www.w3.org/2000/svg"><path clip-rule="evenodd" d="M43 41H5a4 4 0 01-4-4V15a4 4 0 014-4h1a2 2 0 012-2h2a2 2 0 012 2h2s1.125-.125 2-1l2-2s.781-1 2-1h8c1.312 0 2 1 2 1l2 2c.875.875 2 1 2 1h9a4 4 0 014 4v22a4 4 0 01-4 4zm2-26a2 2 0 00-2-2l-9.221-.013c-.305-.033-1.889-.269-3.193-1.573l-2.13-2.13-.104-.151A.604.604 0 0028 9h-8c-.153 0-.375.178-.424.231l-.075.096-2.087 2.086c-1.305 1.305-2.889 1.54-3.193 1.573l-4.151.006c-.024.002-.047.008-.07.008H8c-.014 0-.026-.004-.04-.004L5 13a2 2 0 00-2 2v22a2 2 0 002 2h38a2 2 0 002-2V15zM24 37c-6.075 0-11-4.925-11-11s4.925-11 11-11 11 4.925 11 11-4.925 11-11 11zm0-20c-4.971 0-9 4.029-9 9s4.029 9 9 9 9-4.029 9-9-4.029-9-9-9zm0 14c-2.762 0-5-2.238-5-5s2.238-5 5-5 5 2.238 5 5-2.238 5-5 5zm0-8a3.001 3.001 0 000 6 3 3 0 100-6zm-14-4H6a1 1 0 01-1-1v-2a1 1 0 011-1h4a1 1 0 011 1v2a1 1 0 01-1 1z" fill-rule="evenodd"/></symbol><symbol viewBox="0 0 48 48" id="cart" xmlns="http://www.w3.org/2000/svg"><path d="M19 38c-2.2 0-4 1.8-4 4s1.8 4 4 4 4-1.8 4-4-1.8-4-4-4zm0 6c-1.1 0-2-.9-2-2s.9-2 2-2 2 .9 2 2-.9 2-2 2zm18-6c-2.2 0-4 1.8-4 4s1.8 4 4 4 4-1.8 4-4-1.8-4-4-4zm0 6c-1.1 0-2-.9-2-2s.9-2 2-2 2 .9 2 2-.9 2-2 2zm6.6-34.6c-.7-.9-1.9-1.4-3.1-1.4H12.8l-.4-2.6c-.3-1.9-2-3.4-4-3.4H2v2h6.4c1 0 1.9.7 2 1.7l4.2 27.1c.4 1.9 2.1 3.3 4 3.3H40v-2H18.6c-1 0-1.8-.7-2-1.7l-.4-2.4h22.2c1.9 0 3.6-1.4 4-3.5l2.1-14c.2-1.1-.1-2.2-.9-3.1zm-1.1 2.9l-2.1 14c-.2 1.1-1 1.8-2 1.8H15.9l-2.8-18h27.4c.6 0 1.2.3 1.6.7.4.3.5.9.4 1.5z"/></symbol><symbol viewBox="0 0 344.96 344.96" id="check" xmlns="http://www.w3.org/2000/svg"><g data-name="Слой 2"><path class="agcls-1" d="M321.85 86.24l-40-23.11-23.1-40H212.5L172.48 0l-40 23.11H86.24l-23.11 40-40 23.1v46.21L0 172.48l23.11 40v46.21l40 23.11 23.11 40h46.21l40 23.1 40-23.11h46.21l23.11-40 40-23.11V212.5l23.11-40-23.11-40V86.24zM156.91 243.07a16.79 16.79 0 01-23.34 0l-50.45-50.44a16.19 16.19 0 010-22.89l13.35-13.35a16.19 16.19 0 0122.89 0l25.87 25.87 80.34-80.35a16.19 16.19 0 0122.89 0l13.35 13.35a16.19 16.19 0 010 22.89z" data-name="Capa 1"/></g></symbol><symbol viewBox="0 0 185.208 185.208" id="chevron-left" xmlns="http://www.w3.org/2000/svg"><g transform="translate(952.567 -1192.557)"><path d="M-172.905-1050.923c3.398-2.537 2.999-7.828 0-10.827l-36.204-36.205a7.64 7.64 0 00-10.828 0l-58.717 58.615-58.638 58.536c-3.025 18.772-6.13 37.622-9.156 56.394l56.181-9.368a37537.029 37537.029 0 0159.212-59.103c14.486-14.432 28.733-28.625 58.15-58.042z"/><rect height="67.307" ry="5.082" transform="rotate(135)" width="11.067" x="-601.165" y="865.359"/><path d="M-312.874-925.234l-32.299-32.298-1.275 33.122z"/><rect height="67.307" ry="5.082" transform="rotate(135)" width="11.067" x="-467.454" y="865.783"/></g><g transform="translate(221.447 -535.307)"><ellipse cx="-352.555" cy="-1716.312" rx="5.334" ry="5.342"/><path d="M-352.555-1698.49v37.859M-436.722-1743.288a3.806 3.806 0 00-3.807 3.822v103.568a3.807 3.807 0 003.807 3.823h23.24v36.286l71.375-36.286h73.718a3.807 3.807 0 003.808-3.823v-103.568a3.807 3.807 0 00-3.808-3.822z"/></g><path d="M-1049.366-945.195h41.123l69.633-108.803h65.031m0 0l-39.659-19.993m39.659 19.993l-39.659 19.993m39.659 88.81l-39.659-19.993m39.659 19.993l-39.659 19.993"/><path d="M-1049.412-1053.99h41.122l69.633 108.803h65.031M-1019.807-1476.418h104.674a6.063 6.063 0 016.088 6.065v144.094a6.063 6.063 0 01-6.088 6.064h-104.674a6.063 6.063 0 01-6.088-6.064v-144.094a6.063 6.063 0 016.088-6.065zM-1025.45-1490.835h116.317m-91.387 34.594v115.87m33.05-115.87v115.87m33.05-115.87v115.87m-49.951-155.771h34.16M-2106.14-1372.404v50.635c0 1.263-.843 2.28-1.89 2.28h-172.174c-1.047 0-1.89-1.017-1.89-2.28v-50.635M-2194.116-1496.783v150.835m0 0l-43.482-44.424m43.482 44.424l43.481-44.424M-1798.361-1320.278v-175.781m35.143 175.881h-70.287m70.287-175.981h-70.286M-610.363-2204.846h175.823m-175.823-59.185h175.823m-175.823 118.371h175.823M732.027-1815.198v123.637H595.724v-175.667h83.798"/><path d="M730.212-1813.4h-50.69c-1.006 0-1.815-.8-1.815-1.798v-50.231c0-.997.81-1.8 1.815-1.8l52.505 52.031c0 .996-.81 1.798-1.815 1.798zM-454.32-1444.03v123.84h-136.274v-175.956h83.78"/><path d="M-456.134-1442.23h-50.68a1.81 1.797 0 01-1.814-1.8v-50.315c0-.998.81-1.801 1.815-1.801l52.494 52.116c0 .997-.81 1.8-1.815 1.8zM-560.676-1381.207h78.8m-78.8-28.955h78.8m-78.8 57.91h78.8M-630.532-1867.369h131.96l43.988 43.987v131.961h-175.948v-175.948z"/><path d="M-578.897-1867.369h72.677v47.425h-72.677zM-528.622-1851.633v15.496M-599.372-1762.363h113.611v70.943h-113.61zM-505.156-1739.739h-74.82m74.82 25.695h-74.82M1199.588-2252.593v22.494m-104.458 0v-62.72h64.22"/><path d="M1198.196-2251.202h-38.847c-.77 0-1.39-.62-1.39-1.39v-38.837c0-.77.62-1.39 1.39-1.39l40.238 40.227c0 .77-.62 1.39-1.39 1.39zM1206.598-2212.775h12.753M1095.706-2164.499h-36.322v-64.504h175.948v64.504h-33.492M1117.188-2156.842h60.34m-60.34 18.853h60.34"/><path d="M1094.291-2177.959h106.135v61.087h-106.135zM-1886.289-561.238l175.855-175.855m-175.855 0l175.855 175.855"/><g transform="translate(482.298 -865.099)"><ellipse cx="-344.666" cy="-2283.139" rx="57.372" ry="56.435" transform="rotate(-45.005)"/><path d="M-1738.941-1251.822l-79.106-79.12"/></g><path d="M304.354-1849.053h-35.149v-18.315h35.149zM358.215-1691.421h-142.87v-157.632h142.87z"/><path d="M331.796-1836.451h-90.033v-6.89h90.033zM247.293-1779.743h79.654m-79.654-28.63h79.654m-79.654 57.263h79.654m-80.316 28.63h79.653"/><g transform="translate(-1540.737 -705.196)"><ellipse cx="704.225" cy="-258.695" rx="23.977" ry="23.822" transform="matrix(.5075 -.86165 .8703 .49253 0 0)"/><path d="M185.263-702.973l-32.843-18.586"/><ellipse cx="-519.544" cy="454.936" rx="23.977" ry="23.822" transform="matrix(.5075 .86165 .8703 -.49253 0 0)"/><path d="M185.263-702.973l-32.843 18.587m32.85-18.584l98.805-29.777M185.27-702.97l98.805 29.778"/></g><g transform="matrix(1.5227 0 0 1.52124 316.385 -1420.395)"><path d="M-1690.975 468.413v-19.234m0 115.577v-65.34"/><circle cx="-1690.993" cy="483.921" r="15.502"/></g><g transform="matrix(1.5227 0 0 1.52124 318.893 -1420.395)"><path d="M-1650.35 512.313V449.18m0 115.577v-21.44"/><circle cx="-1650.368" cy="527.822" r="15.502"/></g><g transform="matrix(1.5227 0 0 1.52124 274.192 -1418.768)"><path d="M-1578.724 480.956V448.11m0 115.577v-51.728"/><circle cx="-1578.74" cy="496.465" r="15.502"/></g><path d="M-2246.171-1867.371h116.03v175.953h-116.03zM-2196.162-1779.395h132.042m0 0l-38.89 38.051m38.89-38.051l-38.89-38.051M-1866.525-1867.371h116.03v175.953h-116.03zM-1684.474-1779.395h-132.043m.001 0l38.889 38.051m-38.889-38.051l38.889-38.051M-2472.024-1372.404v50.635c0 1.263-.843 2.28-1.89 2.28h-172.174c-1.047 0-1.89-1.017-1.89-2.28v-50.635M-2560.001-1345.948v-150.835m0 0l-43.482 44.424m43.482-44.424l43.481 44.424M536.372-1001.198h175.781M157.113-1020.762h175.783m-87.891-87.891v175.781"/><g transform="translate(-156.902 -990.181)"><ellipse cx="-840.6" cy="-2602.197" rx="57.372" ry="56.435" transform="rotate(-45.005)"/><path d="M-2315.174-1126.74l-79.106-79.12m-77.968-39.893h76.1m-38.05-38.05v76.1"/></g><g transform="translate(307.534 -899.31)"><ellipse cx="-566.176" cy="-2456.273" rx="57.372" ry="56.435" transform="rotate(-45.005)"/><path d="M-2017.97-1217.612l-79.106-79.12m-77.968-39.893h76.099"/></g><g transform="translate(236.723 -619.44)"><ellipse cx="-598.089" cy="-2883.944" rx="57.372" ry="56.435" transform="rotate(-45.005)"/><path d="M-2342.916-1497.48l-79.105-79.121"/></g><path d="M-2647.974-715.139h153.947v153.947h-153.947z"/><path d="M-2625.974-715.139v-22h153.948v153.947h-22.002M324.532-1342.517h-71.21c-61.035 0-61.035-93.207 5.201-93.207h125.552m-.001 0l-38.889 38.051m38.889-38.051l-38.889-38.051M-159.482-1342.516h71.21c61.035 0 61.035-93.208-5.202-93.208h-125.551m0 0l38.89 38.051m-38.89-38.051l38.89-38.05M-1380.45-985.026l-95.204 87.928m95.204-87.928l-95.204-87.929M45.003 92.604l95.203 87.928M45.003 92.604l95.203-87.929M-221.344-1048.496l39.902 39.025m-39.902-39.025l39.902-39.028M-221.392-980.059c0 27.68 16.681 52.636 42.264 63.229 25.583 10.593 55.03 4.738 74.611-14.836 19.58-19.573 25.438-49.01 14.841-74.583-10.597-25.574-35.13-42.246-62.82-42.246l-68.843.003M-1270.799-661.269h-175.95l90.042-75.866zm-106.819 100.073h-46.532v-100.073h129.179v100.073h-46.533m-36.114-.118v-48.059h36.115v48.06M-520.547-1082.363l-39.902 39.025m39.902-39.025l-39.902-39.028M-520.5-1013.926c0 27.68-16.68 52.636-42.263 63.229-25.584 10.593-55.03 4.738-74.611-14.836-19.58-19.573-25.438-49.01-14.841-74.583 10.596-25.574 35.13-42.246 62.82-42.246l68.842.003"/><g transform="translate(3.226 -934.832)"><circle cx="-690.901" cy="-1105.169" r="87.974" transform="rotate(45)"/><circle cx="-690.901" cy="-1105.169" r="59.536" transform="rotate(45)"/><path d="M335.03-1227.915l20.05 20.05m-124.297-124.297l20.05 20.05m0 84.197l-20.05 20.05m124.297-124.297l-20.05 20.05"/></g><g transform="translate(-47.294 -955.833)"><ellipse cx="452.398" cy="693.554" rx="31.199" ry="31.635" transform="rotate(-90.006) skewX(-.011)"/><path d="M837.762-452.34l-112.587-.006m55.927 26.086l.006-26.059m17.922 21.544l.006-21.572m17.921 26.064l.006-26.058"/></g><path d="M1069.281-1084.78l23.922 59.513 64.047 4.338-49.262 41.12 15.66 62.192-54.367-34.099-54.368 34.1 15.662-62.194-49.263-41.119 64.047-4.338z"/><g transform="translate(242.764 -1331.016)"><ellipse cx="518.3" cy="619.601" rx="23.977" ry="23.822" transform="matrix(.5075 -.86165 .8703 .49253 0 0)"/><ellipse cx="406.422" cy="684.842" rx="23.977" ry="23.822" transform="matrix(.5075 -.86165 .8703 .49253 0 0)"/><ellipse cx="525.334" cy="762.389" rx="23.977" ry="23.822" transform="matrix(.5075 -.86165 .8703 .49253 0 0)"/><path d="M827.84-128.567l76.632 38.525M823.824-23.72l84.74-42.6"/></g><path d="M-2194.117-1048.799l87.929 95.203m-87.929-95.203l-87.928 95.203M-1829.171-955.386l87.929-95.203m-87.929 95.203l-87.928-95.203M-964.675-649.165l95.203-62.485m-95.203 62.485l95.203 62.484M-973.986-737.094v175.857M-512.843-649.165l-95.203-62.485m95.203 62.485l-95.203 62.484M-503.533-737.094v175.857"/><g transform="translate(1666.946 -473.23)"><ellipse cx="-1833.87" cy="-222.459" rx="41.306" ry="41.449"/><path d="M-1921.576-88.029h175.413m-175.413 0a87.974 86.257 0 01-.268-6.724 87.974 86.257 0 0187.974-86.257 87.974 86.257 0 0187.975 86.257 87.974 86.257 0 01-.268 6.726"/></g><path d="M312.117-676.977c-5.379-20.224-23.863-34.32-45.003-34.32-1.688 0-3.376.091-5.054.273m-39.874 34.013a41.16 41.16 0 00-1.571-.03c-22.901 0-41.466 18.365-41.466 41.018 0 9.846 2.162 21.36 10.074 26.799 42.646 29.32 113.166 29.327 155.809 0 7.91-5.44 10.065-16.953 10.065-26.799 0-22.653-18.565-41.017-41.466-41.017-.524 0-1.048.01-1.571.029m-89.932.034c5.38-20.224 23.863-34.32 45.004-34.32 1.688 0 3.375.091 5.053.273m-457.939-1156.344H-9.806v175.948h-175.948z"/><path d="M-164.455-1820.935h25.929v25.929h-25.929zm53.71 0h25.929v25.929h-25.929zm53.71 0h25.929v25.929h-25.929zm-107.42 57.15h25.929v25.929h-25.929zm53.71 0h25.929v25.929h-25.929zm53.71 0h25.929v25.929h-25.929z"/><path d="M-185.754-1849.066H-9.806v139.344h-175.948zM-1451.745-1867.371h116.03v175.953h-116.03zM-1517.766-1779.395h132.042m0 0l-38.889 38.051m38.889-38.051l-38.889-38.05M-1046.404-1867.371h116.03v175.953h-116.03zM-980.383-1779.395h-132.042m0 0l38.89 38.05m-38.89-38.05l38.89-38.051"/><g transform="translate(112.94 -229.91)"><path d="M510.393-419.255h99.06m-99.06-59.185h99.06m-99.06 118.37h99.06"/><circle cx="491.237" cy="-478.44" r="4.63"/><circle cx="491.237" cy="-419.255" r="4.63"/><circle cx="491.237" cy="-360.069" r="4.63"/><path d="M433.623-419.255h38.457m-38.457-59.185h38.457m-38.457 118.37h38.457"/></g><path d="M-2550.331-1828.398l-21.048-23.28h-35.36m-32.911 23.28l21.048-23.28h35.36m111.216 144.568h-175.948v-121.288h175.948v121.288zM988.494-1832.187h175.948v105.584H988.494z"/><path d="M1164.442-1832.187l-175.962-.336 87.69 78.01z"/><path d="M1048.019-1779.232l-59.54 52.966 175.963-.337-59.796-52.617-28.461 25.044zM-941.634-2138.879v-133.063h-42.622v155.069h61.812v-175.943h-83.078v153.938"/><g transform="translate(214.065 183.713)"><path d="M763.417-840.016a150.885 154.112 0 0150.689-8.956 150.885 154.112 0 0150.686 8.955m-120.034-32.975a187.686 191.7 0 0169.355-13.569 187.686 191.7 0 0169.338 13.562M726.192-905.84a224.488 229.289 0 0187.901-18.31 224.488 229.289 0 0187.923 18.319"/><ellipse cx="814.104" cy="-798.318" rx="18.761" ry="18.767"/></g></symbol><symbol viewBox="0 0 96 96" id="chevron-right" xmlns="http://www.w3.org/2000/svg"><path d="M69.844 43.388L33.842 13.386a6.003 6.003 0 00-7.688 9.223L56.624 48l-30.47 25.39a6.003 6.003 0 007.688 9.223l36.002-30.001a6.01 6.01 0 000-9.223z"/></symbol><symbol viewBox="0 0 60 60" id="clockToMoney" xmlns="http://www.w3.org/2000/svg"><path d="M34 29.879c0-1.859-1.28-3.411-3-3.858V15.879a1 1 0 10-2 0v10.142a3.995 3.995 0 00-2.858 2.858H19a1 1 0 100 2h7.142c.447 1.721 2 3 3.858 3 2.206 0 4-1.794 4-4zm-4 2c-1.103 0-2-.897-2-2s.897-2 2-2 2 .897 2 2-.897 2-2 2zm0-22a1 1 0 001-1v-1a1 1 0 10-2 0v1a1 1 0 001 1zm-1 41v1a1 1 0 102 0v-1a1 1 0 10-2 0zm23-20a1 1 0 100-2h-1a1 1 0 100 2h1zm-44-2a1 1 0 100 2h1a1 1 0 100-2H8zm36.849-12.85a.997.997 0 00.707-.293l.707-.707a.999.999 0 10-1.414-1.414l-.707.707a.999.999 0 00.707 1.707zM14.444 44.021l-.707.707a.999.999 0 101.414 1.414l.707-.707a.999.999 0 10-1.414-1.414zm1.414-29.699l-.707-.707a.999.999 0 10-1.414 1.414l.707.707a.997.997 0 001.414 0 .999.999 0 000-1.414z"/><path d="M30 0C13.458 0 0 13.458 0 30s13.458 30 30 30c3.576 0 7.079-.625 10.414-1.859a1 1 0 10-.694-1.875A27.95 27.95 0 0130 58C14.561 58 2 45.439 2 30S14.561 2 30 2s28 12.561 28 28c0 3.34-.584 6.609-1.735 9.719a1 1 0 001.876.695A29.891 29.891 0 0060 30C60 13.458 46.542 0 30 0z"/><path d="M50 41.101V40a1 1 0 10-2 0v1.105a4.985 4.985 0 00-2.818 1.668 3.438 3.438 0 00-.794 2.603 3.65 3.65 0 001.383 2.491L48 49.6v5.438a2.996 2.996 0 01-2-2.816 1 1 0 10-2 0 5.01 5.01 0 004 4.899V58a1 1 0 102 0v-.882a4.991 4.991 0 002.819-1.668 3.444 3.444 0 00.793-2.605 3.646 3.646 0 00-1.383-2.488L50 48.622v-5.438c1.161.414 2 1.514 2 2.816a1 1 0 102 0 5.01 5.01 0 00-4-4.899zm1.001 10.834c.349.271.576.68.622 1.118.043.41-.075.803-.331 1.105a2.988 2.988 0 01-1.292.875v-3.878l1.001.78zm-4.002-5.647a1.642 1.642 0 01-.622-1.12 1.46 1.46 0 01.331-1.104A2.988 2.988 0 0148 43.189v3.877l-1.001-.778z"/></symbol><symbol viewBox="0 0 32 32" id="control-1" xmlns="http://www.w3.org/2000/svg"><defs><filter id="aka"><feFlood flood-color="#858585" flood-opacity="1" result="floodOut"/><feComposite operator="atop" in="floodOut" in2="SourceGraphic" result="compOut"/><feBlend in="compOut" in2="SourceGraphic"/></filter></defs><g filter="url(#aka)" fill-rule="evenodd"><path d="M0 0h7.594v7.531H0V0zm24.438 0H32v7.531h-7.562V0zM11.844 0h7.594v7.531h-7.594V0zM0 11.562h7.594v7.563H0v-7.563zm24.438 0H32v7.563h-7.562v-7.563zm-12.594 0h7.594v7.563h-7.594v-7.563zM0 24.156h7.594v7.531H0v-7.531zm24.438 0H32v7.531h-7.562v-7.531zm-12.594 0h7.594v7.531h-7.594v-7.531z"/></g></symbol><symbol viewBox="0 0 24 34" id="control-2" xmlns="http://www.w3.org/2000/svg"><defs><filter id="ala"><feFlood flood-color="#858585" flood-opacity="1" result="floodOut"/><feComposite operator="atop" in="floodOut" in2="SourceGraphic" result="compOut"/><feBlend in="compOut" in2="SourceGraphic"/></filter></defs><g filter="url(#ala)" fill-rule="evenodd"><path d="M.125 19.375h5.062v5.031H.125v-5.031zm0-9.781h5.062v5.031H.125V9.594zm0-8.813h5.062v5.031H.125V.781zm0 27.406h5.062v5.032H.125v-5.032zM8.969 9.5H33v4.906H8.969V9.5zm0-8.813H33v4.907H8.969V.687zm0 18.594H33v4.906H8.969v-4.906zm0 8.813H33V33H8.969v-4.906z"/></g></symbol><symbol viewBox="0 0 20 20" id="diagram" xmlns="http://www.w3.org/2000/svg"><path d="M0 2v16h20v-1H1V2H0zm12 2v11h1V4h-1zM4 7v8h1V7H4zm4 3v5h1v-5H8zm8 2v3h1v-3h-1z"/></symbol><symbol viewBox="0 0 64 64" id="discount" xmlns="http://www.w3.org/2000/svg"><g data-name="Outline"><path d="M26 44a4 4 0 10-4-4 4 4 0 004 4zm0-6a2 2 0 11-2 2 2 2 0 012-2zm12 10a4 4 0 104 4 4 4 0 00-4-4zm0 6a2 2 0 112-2 2 2 0 01-2 2zm-15.118-2a3.11 3.11 0 005.318 2.194c2.941-3.055 8.9-9.1 11.918-12.072a3.04 3.04 0 000-4.243 3.088 3.088 0 00-4.239 0s-9.06 8.94-12.077 11.922a3.092 3.092 0 00-.92 2.199zm2.329-.78c3.051-2.951 12.082-11.928 12.082-11.928a1 1 0 111.41 1.419s-8.975 9.026-11.923 12.077a1.109 1.109 0 11-1.569-1.568z"/><path d="M19 62h26a5.006 5.006 0 005-5V29.962a4.974 4.974 0 00-1.421-3.492l-3.8-3.893a13.491 13.491 0 001.471-6.327 14.25 14.25 0 10-27 6.349l-3.809 3.864A4.972 4.972 0 0014 29.973V57a5.006 5.006 0 005 5zm.75-45.75a12.25 12.25 0 1124.5.017c.314 8.054-8.73 14.465-16.23 11.553a3.825 3.825 0 01.188-.986A11.246 11.246 0 1020.75 16.25a11.128 11.128 0 00.77 4.043l-.767.778a12.282 12.282 0 01-1.003-4.821zm15.626 13.829A4.034 4.034 0 0132 32a3.954 3.954 0 01-3.381-1.9 13.394 13.394 0 006.757-.021zm-6.054-4.991A3.978 3.978 0 0132 24a3.933 3.933 0 012.7 1.082 9.375 9.375 0 01-5.378.006zM23.093 18.7a9.244 9.244 0 1118.157-2.447 9.07 9.07 0 01-.322 2.378s-3.975-4.044-5.28-5.41a5.059 5.059 0 00-7.14-.018 984.28 984.28 0 01-5.415 5.497zM16 29.973a2.98 2.98 0 01.864-2.105s9.836-9.911 13.069-13.261a3.034 3.034 0 014.283.01c1.457 1.525 5.893 6.038 5.893 6.038a9.226 9.226 0 01-3.479 3.576A5.926 5.926 0 0032 22a6 6 0 00-.015 12 6.011 6.011 0 005.843-4.788 14.767 14.767 0 005.892-4.86l3.43 3.514a2.986 2.986 0 01.853 2.1V57a3 3 0 01-3 3H19a3 3 0 01-3-3z"/></g></symbol><symbol viewBox="0 0 512 512" id="fb" xmlns="http://www.w3.org/2000/svg"><path d="M331.289 102.369h43.305V29.235c-7.459-.988-33.154-3.234-63.07-3.234-62.441 0-105.207 38.094-105.207 108.081v64.419h-68.91v81.758h68.91v205.74h84.453v-205.74h66.125l10.512-81.758H290.77v-56.334c0-23.627 6.558-39.798 40.519-39.798z"/></symbol><symbol viewBox="0 0 48 48" id="heart" xmlns="http://www.w3.org/2000/svg"><path clip-rule="evenodd" d="M24.804 43.648L24 44l-.804-.352C12.862 37.313 2 22.893 2 14.884 2.035 8.326 7.404 3.002 14 3.002c4.169 0 7.849 2.128 10 5.349a12.014 12.014 0 0110-5.349c6.596 0 11.965 5.324 12 11.882 0 8.009-10.862 22.429-21.196 28.764zM34 4.993a10.006 10.006 0 00-8.335 4.46L24 11.946l-1.665-2.494A10.008 10.008 0 0014 4.993c-5.484 0-9.971 4.442-10 9.891 0 7.064 10.234 20.808 20 26.917 9.766-6.109 20-19.852 20-26.907-.029-5.459-4.516-9.901-10-9.901z" fill-rule="evenodd"/></symbol><symbol viewBox="0 0 512 512" id="instagram" xmlns="http://www.w3.org/2000/svg"><path d="M505 257c0 35.8.1 71.6 0 107.5-.2 52-24.4 90.5-67.6 117.7C412.1 498 384 505 354.2 505c-65.2 0-130.3.3-195.5-.1-45.3-.3-84.3-16.3-115.2-49.9-19.1-20.8-30.5-45.3-33.8-73.6-.7-6-.8-11.9-.8-17.9 0-71.3-.1-142.6 0-213.9C9.2 97.5 33.4 59 76.6 31.8 102.1 15.9 130.3 9 160.3 9c65 0 130-.3 195 .1 45.5.3 84.6 16.4 115.5 50.2 18.9 20.7 30.2 45.2 33.4 73.2 1.3 11 .7 22 .8 32.9.1 30.6 0 61.1 0 91.6zm-459 0c0 36.7-.1 73.3 0 110 .1 25.2 9.3 46.9 26.5 64.9 23.1 24.1 51.9 35.8 85 36 65.7.4 131.3.1 197 .1 21.2 0 41.4-4.6 59.8-15.2 34.4-19.7 53.8-48.7 53.8-89.3V147c0-25-9.1-46.6-26.2-64.5-22.9-24.2-51.8-36.1-84.8-36.3-66.4-.5-132.7-.2-199.1-.2-20.7 0-40.3 4.9-58.3 15.1-34.3 19.8-53.8 48.8-53.7 89.4V257z"/><path d="M257.3 363c-64.6 0-116.4-51.6-116.3-116 .1-62.7 52.6-114.1 116.7-114 64.4 0 116.4 51.7 116.3 115.5-.1 63.2-52.4 114.5-116.7 114.5zm0-37c43.9 0 79.7-34.9 79.7-77.8 0-43.1-35.5-78.2-79.3-78.2-43.9 0-79.7 34.9-79.7 77.8 0 43.1 35.5 78.2 79.3 78.2zM363 123.6c0-14.2 10.9-25.6 24.5-25.6s24.5 11.5 24.5 25.6c0 13.9-10.9 25.3-24.3 25.4-13.6.1-24.7-11.2-24.7-25.4z"/></symbol><symbol viewBox="0 0 48 48" id="like" xmlns="http://www.w3.org/2000/svg"><path clip-rule="evenodd" d="M24.804 43.648L24 44l-.804-.352C12.862 37.313 2 22.893 2 14.884 2.035 8.326 7.404 3.002 14 3.002c4.169 0 7.849 2.128 10 5.349a12.014 12.014 0 0110-5.349c6.596 0 11.965 5.324 12 11.882 0 8.009-10.862 22.429-21.196 28.764zM34 4.993a10.006 10.006 0 00-8.335 4.46L24 11.946l-1.665-2.494A10.008 10.008 0 0014 4.993c-5.484 0-9.971 4.442-10 9.891 0 7.064 10.234 20.808 20 26.917 9.766-6.109 20-19.852 20-26.907-.029-5.459-4.516-9.901-10-9.901z" fill-rule="evenodd"/></symbol><symbol id="mail" viewBox="0 0 64 64" xml:space="preserve" xmlns="http://www.w3.org/2000/svg"><style>.asst0{fill:#134563}</style><g id="asIcon-Envelope" transform="translate(78 232)"><path class="asst0" d="M-22.5-213.2l-1.9-1.9-17.6 17.6c-2.2 2.2-5.9 2.2-8.1 0L-67.7-215l-1.9 1.9 13.1 13.1-13.1 13.1 1.9 1.9 13.1-13.1 2.6 2.6c1.6 1.6 3.7 2.5 5.9 2.5s4.3-.9 5.9-2.5l2.6-2.6 13.1 13.1 1.9-1.9-13.1-13.1 13.2-13.2" id="asFill-3"/><path class="asst0" d="M-26.2-181.6h-39.5c-2.3 0-4.2-1.9-4.2-4.2V-214c0-2.3 1.9-4.2 4.2-4.2h39.5c2.3 0 4.2 1.9 4.2 4.2v28.2c0 2.3-1.9 4.2-4.2 4.2zm-39.6-33.9c-.8 0-1.4.6-1.4 1.4v28.2c0 .8.6 1.4 1.4 1.4h39.5c.8 0 1.4-.6 1.4-1.4v-28.2c0-.8-.6-1.4-1.4-1.4h-39.5z" id="asFill-4"/></g></symbol><symbol viewBox="0 0 32 32" id="money" xmlns="http://www.w3.org/2000/svg"><g data-name="Layer 2"><path d="M29 8.5H4.86a.5.5 0 00-.5.5v2.3H3a.5.5 0 00-.5.5V23a.51.51 0 00.5.5h22.29a.5.5 0 00.5-.5v-2.3H29a.5.5 0 00.5-.5V9a.5.5 0 00-.5-.5zm-4.21 14H3.5V12.3h21.29v10.2zm3.71-2.8h-2.71v-7.9a.58.58 0 000-.19.51.51 0 00-.27-.27.43.43 0 00-.19 0H5.36V9.5H28.5z"/><path d="M6.71 13.17H4.86a.5.5 0 00-.5.5.5.5 0 00.5.5h1.85a.5.5 0 00.5-.5.5.5 0 00-.5-.5zm16.72 7.46h-1.86a.5.5 0 00-.5.5.5.5 0 00.5.5h1.86a.5.5 0 00.5-.5.5.5 0 00-.5-.5zm-9.29-6.53a3.3 3.3 0 103.29 3.3 3.29 3.29 0 00-3.29-3.3zm0 5.6a2.3 2.3 0 112.29-2.3 2.29 2.29 0 01-2.29 2.3zm9.29-6.53h-1.86a.5.5 0 00-.5.5.5.5 0 00.5.5h1.86a.5.5 0 00.5-.5.5.5 0 00-.5-.5zM6.71 20.63H4.86a.5.5 0 00-.5.5.5.5 0 00.5.5h1.85a.5.5 0 00.5-.5.5.5 0 00-.5-.5z"/></g></symbol><symbol viewBox="0 0 64 64" id="ok" xmlns="http://www.w3.org/2000/svg"><style>.aust15{fill:#f58220}</style><path class="aust15" d="M32 2c-7.4 0-13.5 6-13.5 13.5 0 7.4 6 13.5 13.5 13.5s13.5-6 13.5-13.5S39.4 2 32 2zm0 18c-2.5 0-4.5-2-4.5-4.5s2-4.5 4.5-4.5 4.5 2 4.5 4.5-2 4.5-4.5 4.5zm16.6 18.1c-3.4 1.9-7.1 3.2-10.8 3.8l10.5 12.9c1.2 1.5 1.5 3.6.4 5.2-1.7 2.6-5.3 2.7-7.1.4l-9.7-11.9-9.6 11.9c-.9 1.1-2.1 1.6-3.4 1.6-1.3 0-2.6-.6-3.5-1.8-1.1-1.5-1-4 .2-5.5l10.4-13c-3.7-.7-7.4-1.9-10.7-3.8-2.1-1.2-2.8-3.8-1.6-6 1.2-2.1 3.9-2.8 6-1.6 7.6 4.3 17.1 4.3 24.8.1 2.1-1.2 4.8-.4 5.9 1.7 1.1 2.2.3 4.8-1.8 6z" id="auLayer_11"/></symbol><symbol viewBox="0 0 185.208 185.208" id="person" xmlns="http://www.w3.org/2000/svg"><g transform="translate(952.567 -1192.557)"><path d="M-172.905-1050.923c3.398-2.537 2.999-7.828 0-10.827l-36.204-36.205a7.64 7.64 0 00-10.828 0l-58.717 58.615-58.638 58.536c-3.025 18.772-6.13 37.622-9.156 56.394l56.181-9.368a37537.029 37537.029 0 0159.212-59.103c14.486-14.432 28.733-28.625 58.15-58.042z"/><rect height="67.307" ry="5.082" transform="rotate(135)" width="11.067" x="-601.165" y="865.359"/><path d="M-312.874-925.234l-32.299-32.298-1.275 33.122z"/><rect height="67.307" ry="5.082" transform="rotate(135)" width="11.067" x="-467.454" y="865.783"/></g><g transform="translate(221.447 -535.307)"><ellipse cx="-352.555" cy="-1716.312" rx="5.334" ry="5.342"/><path d="M-352.555-1698.49v37.859M-436.722-1743.288a3.806 3.806 0 00-3.807 3.822v103.568a3.807 3.807 0 003.807 3.823h23.24v36.286l71.375-36.286h73.718a3.807 3.807 0 003.808-3.823v-103.568a3.807 3.807 0 00-3.808-3.822z"/></g><path d="M-1055.341-946.797h41.123l69.633-108.803h65.031m0 0l-39.659-19.993m39.659 19.993l-39.659 19.993m39.659 88.81l-39.659-19.993m39.659 19.993l-39.659 19.993"/><path d="M-1055.387-1055.592h41.122l69.633 108.803h65.031M-1019.807-1476.418h104.674a6.063 6.063 0 016.088 6.065v144.094a6.063 6.063 0 01-6.088 6.064h-104.674a6.063 6.063 0 01-6.088-6.064v-144.094a6.063 6.063 0 016.088-6.065zM-1025.45-1490.835h116.317m-91.387 34.594v115.87m33.05-115.87v115.87m33.05-115.87v115.87m-49.951-155.771h34.16M-2106.14-1372.404v50.635c0 1.263-.843 2.28-1.89 2.28h-172.174c-1.047 0-1.89-1.017-1.89-2.28v-50.635M-2194.116-1496.783v150.835m0 0l-43.482-44.424m43.482 44.424l43.481-44.424M-1798.361-1320.278v-175.781m35.143 175.881h-70.287m70.287-175.981h-70.286M-610.363-2204.846h175.823m-175.823-59.185h175.823m-175.823 118.371h175.823M732.027-1815.198v123.637H595.724v-175.667h83.798"/><path d="M730.212-1813.4h-50.69c-1.006 0-1.815-.8-1.815-1.798v-50.231c0-.997.81-1.8 1.815-1.8l52.505 52.031c0 .996-.81 1.798-1.815 1.798zM-454.32-1444.03v123.84h-136.274v-175.956h83.78"/><path d="M-456.134-1442.23h-50.68a1.81 1.797 0 01-1.814-1.8v-50.315c0-.998.81-1.801 1.815-1.801l52.494 52.116c0 .997-.81 1.8-1.815 1.8zM-560.676-1381.207h78.8m-78.8-28.955h78.8m-78.8 57.91h78.8M-630.532-1867.369h131.96l43.988 43.987v131.961h-175.948v-175.948z"/><path d="M-578.897-1867.369h72.677v47.425h-72.677zM-528.622-1851.633v15.496M-599.372-1762.363h113.611v70.943h-113.61zM-505.156-1739.739h-74.82m74.82 25.695h-74.82M1199.588-2252.593v22.494m-104.458 0v-62.72h64.22"/><path d="M1198.196-2251.202h-38.847c-.77 0-1.39-.62-1.39-1.39v-38.837c0-.77.62-1.39 1.39-1.39l40.238 40.227c0 .77-.62 1.39-1.39 1.39zM1206.598-2212.775h12.753M1095.706-2164.499h-36.322v-64.504h175.948v64.504h-33.492M1117.188-2156.842h60.34m-60.34 18.853h60.34"/><path d="M1094.291-2177.959h106.135v61.087h-106.135zM-1886.289-561.238l175.855-175.855m-175.855 0l175.855 175.855"/><g transform="translate(482.298 -865.099)"><ellipse cx="-344.666" cy="-2283.139" rx="57.372" ry="56.435" transform="rotate(-45.005)"/><path d="M-1738.941-1251.822l-79.106-79.12"/></g><path d="M304.354-1849.053h-35.149v-18.315h35.149zM358.215-1691.421h-142.87v-157.632h142.87z"/><path d="M331.796-1836.451h-90.033v-6.89h90.033zM247.293-1779.743h79.654m-79.654-28.63h79.654m-79.654 57.263h79.654m-80.316 28.63h79.653"/><g transform="translate(-1540.737 -705.196)"><ellipse cx="704.225" cy="-258.695" rx="23.977" ry="23.822" transform="matrix(.5075 -.86165 .8703 .49253 0 0)"/><path d="M185.263-702.973l-32.843-18.586"/><ellipse cx="-519.544" cy="454.936" rx="23.977" ry="23.822" transform="matrix(.5075 .86165 .8703 -.49253 0 0)"/><path d="M185.263-702.973l-32.843 18.587m32.85-18.584l98.805-29.777M185.27-702.97l98.805 29.778"/></g><g transform="matrix(1.5227 0 0 1.52124 316.385 -1420.395)"><path d="M-1690.975 468.413v-19.234m0 115.577v-65.34"/><circle cx="-1690.993" cy="483.921" r="15.502"/></g><g transform="matrix(1.5227 0 0 1.52124 318.893 -1420.395)"><path d="M-1650.35 512.313V449.18m0 115.577v-21.44"/><circle cx="-1650.368" cy="527.822" r="15.502"/></g><g transform="matrix(1.5227 0 0 1.52124 274.192 -1418.768)"><path d="M-1578.724 480.956V448.11m0 115.577v-51.728"/><circle cx="-1578.74" cy="496.465" r="15.502"/></g><path d="M-2246.171-1867.371h116.03v175.953h-116.03zM-2196.162-1779.395h132.042m0 0l-38.89 38.051m38.89-38.051l-38.89-38.051M-1866.525-1867.371h116.03v175.953h-116.03zM-1684.474-1779.395h-132.043m.001 0l38.889 38.051m-38.889-38.051l38.889-38.051M-2472.024-1372.404v50.635c0 1.263-.843 2.28-1.89 2.28h-172.174c-1.047 0-1.89-1.017-1.89-2.28v-50.635M-2560.001-1345.948v-150.835m0 0l-43.482 44.424m43.482-44.424l43.481 44.424M536.372-1001.198h175.781M159.275-1001.198h175.783m-87.891-87.891v175.781"/><g transform="translate(-156.902 -990.181)"><ellipse cx="-840.6" cy="-2602.197" rx="57.372" ry="56.435" transform="rotate(-45.005)"/><path d="M-2315.174-1126.74l-79.106-79.12m-77.968-39.893h76.1m-38.05-38.05v76.1"/></g><g transform="translate(307.534 -899.31)"><ellipse cx="-566.176" cy="-2456.273" rx="57.372" ry="56.435" transform="rotate(-45.005)"/><path d="M-2017.97-1217.612l-79.106-79.12m-77.968-39.893h76.099"/></g><g transform="translate(236.723 -619.44)"><ellipse cx="-598.089" cy="-2883.944" rx="57.372" ry="56.435" transform="rotate(-45.005)"/><path d="M-2342.916-1497.48l-79.105-79.121"/></g><path d="M-2647.974-715.139h153.947v153.947h-153.947z"/><path d="M-2625.974-715.139v-22h153.948v153.947h-22.002M324.532-1342.517h-71.21c-61.035 0-61.035-93.207 5.201-93.207h125.552m-.001 0l-38.889 38.051m38.889-38.051l-38.889-38.051M-159.482-1342.516h71.21c61.035 0 61.035-93.208-5.202-93.208h-125.551m0 0l38.89 38.051m-38.89-38.051l38.89-38.05M-1296.965-1001.198l-95.204 87.928m95.204-87.928l-95.204-87.929M-2607.602-1001.198l95.203 87.928m-95.203-87.928l95.203-87.929M-199.523-1050.1l39.902 39.026m-39.902-39.025l39.902-39.028M-199.571-981.661c0 27.68 16.681 52.636 42.264 63.229 25.583 10.593 55.03 4.738 74.611-14.836 19.58-19.573 25.438-49.01 14.841-74.583-10.597-25.574-35.13-42.246-62.82-42.246l-68.843.003M-1270.799-661.269h-175.95l90.042-75.866zm-106.819 100.073h-46.532v-100.073h129.179v100.073h-46.533m-36.114-.118v-48.059h36.115v48.06M-454.037-1050.1l-39.902 39.026m39.902-39.025l-39.902-39.028M-453.99-981.661c0 27.68-16.68 52.636-42.263 63.229-25.584 10.593-55.03 4.738-74.611-14.836-19.58-19.573-25.438-49.01-14.841-74.583 10.596-25.574 35.13-42.246 62.82-42.246l68.842.003"/><g transform="translate(3.226 -934.832)"><circle cx="-690.901" cy="-1105.169" r="87.974" transform="rotate(45)"/><circle cx="-690.901" cy="-1105.169" r="59.536" transform="rotate(45)"/><path d="M335.03-1227.915l20.05 20.05m-124.297-124.297l20.05 20.05m0 84.197l-20.05 20.05m124.297-124.297l-20.05 20.05"/></g><g transform="translate(-47.294 -955.833)"><ellipse cx="452.398" cy="693.554" rx="31.199" ry="31.635" transform="rotate(-90.006) skewX(-.011)"/><path d="M837.762-452.34l-112.587-.006m55.927 26.086l.006-26.059m17.922 21.544l.006-21.572m17.921 26.064l.006-26.058"/></g><path d="M1069.281-1084.78l23.922 59.513 64.047 4.338-49.262 41.12 15.66 62.192-54.367-34.099-54.368 34.1 15.662-62.194-49.263-41.119 64.047-4.338z"/><g transform="translate(242.764 -1331.016)"><ellipse cx="518.3" cy="619.601" rx="23.977" ry="23.822" transform="matrix(.5075 -.86165 .8703 .49253 0 0)"/><ellipse cx="406.422" cy="684.842" rx="23.977" ry="23.822" transform="matrix(.5075 -.86165 .8703 .49253 0 0)"/><ellipse cx="525.334" cy="762.389" rx="23.977" ry="23.822" transform="matrix(.5075 -.86165 .8703 .49253 0 0)"/><path d="M827.84-128.567l76.632 38.525M823.824-23.72l84.74-42.6"/></g><path d="M-2194.117-1048.799l87.929 95.203m-87.929-95.203l-87.928 95.203M-1798.361-953.597l87.929-95.203m-87.929 95.203l-87.928-95.203M-964.675-649.165l95.203-62.485m-95.203 62.485l95.203 62.484M-973.986-737.094v175.857M-512.843-649.165l-95.203-62.485m95.203 62.485l-95.203 62.484M-503.533-737.094v175.857"/><g transform="translate(1926.474 268.539)"><ellipse cx="-1833.87" cy="-222.459" rx="41.306" ry="41.449"/><path d="M-1921.576-88.029h175.413m-175.413 0a87.974 86.257 0 01-.268-6.724 87.974 86.257 0 0187.974-86.257 87.974 86.257 0 0187.975 86.257 87.974 86.257 0 01-.268 6.726"/></g><path d="M260.366-705.675c-5.38-20.223-23.863-34.319-45.004-34.319-1.688 0-3.375.091-5.053.273m-39.875 34.013c-.523-.02-1.047-.03-1.57-.03-22.902 0-41.467 18.365-41.467 41.018 0 9.846 2.163 21.36 10.074 26.799 42.647 29.32 113.167 29.327 155.81 0 7.91-5.44 10.064-16.953 10.064-26.799 0-22.653-18.565-41.017-41.466-41.017-.524 0-1.047.01-1.57.029m-89.932.034c5.379-20.224 23.863-34.32 45.003-34.32 1.688 0 3.376.091 5.054.273m-406.188-1127.647H-9.806v175.948h-175.948z"/><path d="M-164.455-1820.935h25.929v25.929h-25.929zm53.71 0h25.929v25.929h-25.929zm53.71 0h25.929v25.929h-25.929zm-107.42 57.15h25.929v25.929h-25.929zm53.71 0h25.929v25.929h-25.929zm53.71 0h25.929v25.929h-25.929z"/><path d="M-185.754-1849.066H-9.806v139.344h-175.948zM-1451.745-1867.371h116.03v175.953h-116.03zM-1517.766-1779.395h132.042m0 0l-38.889 38.051m38.889-38.051l-38.889-38.05M-1046.404-1867.371h116.03v175.953h-116.03zM-980.383-1779.395h-132.042m0 0l38.89 38.05m-38.89-38.05l38.89-38.051"/><g transform="translate(100.233 -233.208)"><path d="M510.393-419.255h99.06m-99.06-59.185h99.06m-99.06 118.37h99.06"/><circle cx="491.237" cy="-478.44" r="4.63"/><circle cx="491.237" cy="-419.255" r="4.63"/><circle cx="491.237" cy="-360.069" r="4.63"/><path d="M433.623-419.255h38.457m-38.457-59.185h38.457m-38.457 118.37h38.457"/></g><path d="M-2550.331-1828.398l-21.048-23.28h-35.36m-32.911 23.28l21.048-23.28h35.36m111.216 144.568h-175.948v-121.288h175.948v121.288zM988.494-1832.187h175.948v105.584H988.494z"/><path d="M1164.442-1832.187l-175.962-.336 87.69 78.01z"/><path d="M1048.019-1779.232l-59.54 52.966 175.963-.337-59.796-52.617-28.461 25.044zM-941.634-2138.879v-133.063h-42.622v155.069h61.812v-175.943h-83.078v153.938"/><g transform="translate(278.302 196.1)"><path d="M763.417-840.016a150.885 154.112 0 0150.689-8.956 150.885 154.112 0 0150.686 8.955m-120.034-32.975a187.686 191.7 0 0169.355-13.569 187.686 191.7 0 0169.338 13.562M726.192-905.84a224.488 229.289 0 0187.901-18.31 224.488 229.289 0 0187.923 18.319"/><ellipse cx="814.104" cy="-798.318" rx="18.761" ry="18.767"/></g></symbol><symbol viewBox="0 0 512 512" id="print" xmlns="http://www.w3.org/2000/svg"><path d="M379.217 249.111c-8.842 0-16.035-7.193-16.035-16.035s7.193-16.035 16.035-16.035 16.035 7.193 16.035 16.035-7.193 16.035-16.035 16.035zm0-24.07c-4.432 0-8.035 3.604-8.035 8.035s3.604 8.035 8.035 8.035c4.43 0 8.035-3.604 8.035-8.035s-3.606-8.035-8.035-8.035zm-35.533 24.07c-8.842 0-16.035-7.193-16.035-16.035s7.193-16.035 16.035-16.035 16.035 7.193 16.035 16.035-7.194 16.035-16.035 16.035zm0-24.07c-4.43 0-8.035 3.604-8.035 8.035s3.605 8.035 8.035 8.035c4.432 0 8.035-3.604 8.035-8.035s-3.604-8.035-8.035-8.035zm9.178-125.988c0-.811-.259-1.553-.673-2.183l-.031-.05a3.952 3.952 0 00-.426-.521c-.023-.023-.039-.051-.062-.074l-46.894-46.893a4.073 4.073 0 00-.551-.452c-.057-.04-.117-.074-.176-.11a3.934 3.934 0 00-.457-.244c-.064-.029-.127-.059-.193-.084a3.865 3.865 0 00-.645-.196c-.01-.001-.018-.005-.027-.007a4.065 4.065 0 00-.697-.069c-.027 0-.055-.008-.082-.008H178.406c-10.661 0-19.334 8.674-19.334 19.334v119.161a4 4 0 004 4h185.77a4 4 0 004-4V99.252c.004-.067.02-.131.02-.199zm-46.913-37.236l16.617 16.619 16.619 16.618h-27.324a5.919 5.919 0 01-5.912-5.913V61.817zM167.072 182.655V67.494c0-6.25 5.084-11.334 11.334-11.334h119.543v32.98c0 7.671 6.24 13.913 13.912 13.913h32.98v79.602H167.072zM360.305 329.93H152.842a4.585 4.585 0 010-9.17h207.462a4.586 4.586 0 01.001 9.17z"/><path d="M393.051 182.655H118.95c-17.646 0-32.002 14.356-32.002 32.003v126.241c0 17.646 14.356 32.002 32.002 32.002h40.208v70.521a20.282 20.282 0 005.981 14.438 20.283 20.283 0 0014.438 5.98H332.52c11.252 0 20.412-9.154 20.419-20.406l.046-70.533h40.066c17.646 0 32.002-14.356 32.002-32.002V214.658c0-17.647-14.357-32.003-32.002-32.003zm-48.113 260.774c-.005 6.843-5.575 12.411-12.419 12.411H179.577c-3.317 0-6.436-1.291-8.781-3.637s-3.638-5.465-3.638-8.782V329.346h177.854l-.074 114.083zm72.115-102.531c0 13.234-10.768 24.002-24.002 24.002h-40.063l.025-39.553a4 4 0 00-4-4.002H163.158a4 4 0 00-4 4V364.9H118.95c-13.235 0-24.002-10.768-24.002-24.002v-59.693h322.105v59.693zm0-67.693H94.947v-58.547c0-13.235 10.768-24.003 24.002-24.003H393.05c13.234 0 24.002 10.768 24.002 24.003v58.547z"/><path d="M316.795 373.485H196.352a4.54 4.54 0 01-4.539-4.539v-.091a4.538 4.538 0 014.539-4.539h120.443a4.539 4.539 0 014.539 4.539v.091a4.54 4.54 0 01-4.539 4.539zm0 22.924H196.352a4.54 4.54 0 01-4.539-4.538v-.092a4.538 4.538 0 014.539-4.539h120.443a4.539 4.539 0 014.539 4.539v.092a4.54 4.54 0 01-4.539 4.538zm0 22.924H196.352a4.54 4.54 0 01-4.539-4.538v-.092a4.539 4.539 0 014.539-4.539h120.443a4.54 4.54 0 014.539 4.539v.092a4.54 4.54 0 01-4.539 4.538z"/></symbol><symbol viewBox="0 0 300 300" id="refund" xmlns="http://www.w3.org/2000/svg"><g stroke-linecap="round" stroke-linejoin="round" stroke-miterlimit="10" stroke-width="6"><path d="M231 188v13c0 5.523-4.727 10-10.25 10h-171c-5.523 0-9.75-4.477-9.75-10V100c0-5.523 4.227-10 9.75-10h171c5.523 0 10.25 4.477 10.25 10v60"/><path d="M231 122.627a3.627 3.627 0 00-3.627-3.627H43.627A3.627 3.627 0 0040 122.627v23.746A3.627 3.627 0 0043.627 150h183.746a3.627 3.627 0 003.627-3.627v-23.746zM54 189h26m118.307-25.833l-11.076 11.076 11.076 11.076"/><path d="M188.356 174.625s56.593-.067 56.816-.076c8.512-.34 14.828-7.188 14.828-15.799v-2c0-8.836-6.414-15.75-15.25-15.75H243"/></g></symbol><symbol viewBox="0 0 32 32" id="search" xmlns="http://www.w3.org/2000/svg"><path d="M19.427 20.427a8.5 8.5 0 111.083-.917l5.998 5.998a.699.699 0 01-.008.992.7.7 0 01-.992.008l-6.08-6.08zM14.5 21a7.5 7.5 0 100-15 7.5 7.5 0 000 15z" fill-rule="evenodd"/></symbol><symbol viewBox="0 0 64 64" id="settings" xmlns="http://www.w3.org/2000/svg"><path d="M51.186 45.583L55 44.82v-9.64l-3.814-.763a19.883 19.883 0 00-1.671-4.038l2.157-3.235-6.817-6.816-3.235 2.157a19.827 19.827 0 00-4.037-1.671L36.82 17h-9.64l-.762 3.814a19.851 19.851 0 00-4.004 1.652l-3.275-2.131-6.804 6.803 2.131 3.277a19.869 19.869 0 00-1.641 3.965L9 35.189v9.621l3.825.81a19.81 19.81 0 001.641 3.965l-2.131 3.277 6.804 6.803 3.275-2.131a19.928 19.928 0 003.965 1.641l.81 3.825h9.621l.811-3.825a19.875 19.875 0 003.998-1.66l3.235 2.157 6.817-6.816-2.157-3.235a19.91 19.91 0 001.672-4.038zm-2.088 7.018l-4.497 4.498-2.909-1.939-.541.321a17.905 17.905 0 01-4.633 1.925l-.599.155-.73 3.439H28.81l-.729-3.44-.599-.155a17.903 17.903 0 01-4.596-1.902l-.534-.314-2.946 1.916-4.511-4.511 1.916-2.947-.314-.534a17.879 17.879 0 01-1.901-4.595l-.154-.6L11 43.189V36.81l3.441-.729.154-.6a17.914 17.914 0 011.901-4.595l.314-.534-1.916-2.947 4.511-4.511 2.946 1.916.534-.314a17.85 17.85 0 014.639-1.913l.609-.156L28.82 19h6.359l.686 3.428.609.156a17.844 17.844 0 014.676 1.936l.541.321 2.909-1.939 4.497 4.498-1.938 2.909.32.541a17.892 17.892 0 011.936 4.676l.156.609L53 36.82v6.36l-3.429.686-.156.609a17.858 17.858 0 01-1.936 4.676l-.32.541 1.939 2.909z"/><path d="M31 21h2v2h-2zm-13.142 6.272l1.415-1.415 1.414 1.415-1.414 1.414zM13 39h2v2h-2zm4.858 13.727l1.414-1.414 1.415 1.414-1.415 1.415zM31 57h2v2h-2zm12.313-4.272l1.414-1.415 1.414 1.415-1.414 1.414zM49 39h2v2h-2zm-5.687-11.728l1.414-1.414 1.415 1.414-1.415 1.414zM32 27c-7.168 0-13 5.832-13 13s5.832 13 13 13 13-5.832 13-13-5.832-13-13-13zm0 24c-6.065 0-11-4.935-11-11s4.935-11 11-11 11 4.935 11 11-4.935 11-11 11z"/><path d="M32 33c-3.859 0-7 3.14-7 7s3.141 7 7 7 7-3.14 7-7-3.141-7-7-7zm0 12c-2.757 0-5-2.243-5-5s2.243-5 5-5 5 2.243 5 5-2.243 5-5 5zm23 8h2v2h-2zm0 4h2v2h-2zm2-2h2v2h-2zm-4 0h2v2h-2zM3 55h2v2H3zm0 4h2v2H3zm2-2h2v2H5zm-4 0h2v2H1zm58-36h2v2h-2zm0 4h2v2h-2zm2-2h2v2h-2zm-4 0h2v2h-2zM5 23h2v2H5zm0 4h2v2H5zm2-2h2v2H7zm-4 0h2v2H3zm7-6a9.03 9.03 0 007.475-4h29.051a9.03 9.03 0 007.475 4 8.883 8.883 0 005.628-1.992l.372-.3V13h-4.382l-1.5-3 1.5-3H60V3.292l-.372-.3A8.883 8.883 0 0054 1a9.03 9.03 0 00-7.475 4h-29.05A9.03 9.03 0 0010 1a8.883 8.883 0 00-5.628 1.992l-.372.3V7h4.382l1.5 3-1.5 3H4v3.708l.372.3A8.883 8.883 0 0010 19zm-4-4h3.618l2.5-5-2.5-5H6v-.732A6.884 6.884 0 0110 3a7.027 7.027 0 016.056 3.501l.289.499h31.311l.289-.499A7.024 7.024 0 0154 3c1.448 0 2.821.437 4 1.268V5h-3.618l-2.5 5 2.5 5H58v.732A6.884 6.884 0 0154 17a7.027 7.027 0 01-6.056-3.501L47.655 13h-31.31l-.289.499A7.027 7.027 0 0110 17a6.884 6.884 0 01-4-1.268V15z"/></symbol><symbol viewBox="0 0 32 32" id="squares" xmlns="http://www.w3.org/2000/svg"><defs><style>.bacls-1{fill:none;stroke:#000;stroke-linecap:round;stroke-linejoin:round;stroke-width:2px}</style></defs><path class="bacls-1" d="M1 1h12v12H1zm0 18h12v12H1zm18 0h12v12H19zm0-18h12v12H19z" data-name="67-menu" id="ba_67-menu"/></symbol><symbol viewBox="0 0 16 16" id="telegram" xmlns="http://www.w3.org/2000/svg"><path d="M14.629 3.698l-2.012 9.618c-.152.679-.548.848-1.11.528l-3.066-2.29-1.48 1.442c-.163.166-.3.305-.616.305l.22-3.165 5.683-5.204c.247-.223-.054-.347-.384-.123L4.839 9.29l-3.024-.959c-.658-.208-.67-.667.137-.986L13.78 2.727c.548-.208 1.027.124.849.971z"/></symbol><symbol viewBox="0 0 60 52" id="track" xmlns="http://www.w3.org/2000/svg"><path d="M40 51a1 1 0 01-1 1h-2a1 1 0 010-2h2a1 1 0 011 1m20 0a1 1 0 01-1 1H43a1 1 0 010-2h16a1 1 0 011 1m-28 0a1 1 0 01-1 1H21a1 1 0 010-2h10a1 1 0 011 1m-16 0a1 1 0 01-1 1H1a1 1 0 010-2h14a1 1 0 011 1M2 31a1 1 0 011-1h2.84l-.423-2.853a1 1 0 011.979-.294L7.863 30H15a1 1 0 010 2H3a1 1 0 01-1-1m1-9h1.559l-.423-2.853a1 1 0 011.978-.294L6.582 22H15a1 1 0 010 2H3a1 1 0 010-2m12 20c-.551 0-1-.449-1-1 0-.551.449-1 1-1 .551 0 1 .449 1 1 0 .551-.449 1-1 1m0-4c-1.654 0-3 1.346-3 3s1.346 3 3 3 3-1.346 3-3-1.346-3-3-3m34 4c-.551 0-1-.449-1-1 0-.551.449-1 1-1 .551 0 1 .449 1 1 0 .551-.449 1-1 1m0-4c-1.654 0-3 1.346-3 3s1.346 3 3 3 3-1.346 3-3-1.346-3-3-3m0 8c-2.757 0-5-2.243-5-5s2.243-5 5-5 5 2.243 5 5-2.243 5-5 5m9.707-20.707l-2.741-2.741L55 11c0-2.757-2.243-5-5-5h-7a1 1 0 000 2h7c1.626 0 3 1.374 3.003 3.083L53.913 22h-3.295l1.277-2.553a1.001 1.001 0 00-1.79-.894L48.382 22H43a1 1 0 000 2h11.586l2.707 2.707c.57.57.705 1.881.707 2.293v11h-2.08c-.487-3.387-3.4-6-6.92-6-3.86 0-7 3.14-7 7s3.14 7 7 7c3.52 0 6.433-2.613 6.92-6H59a1 1 0 001-1V29c0-.247-.036-2.451-1.293-3.707M15 46c-2.757 0-5-2.243-5-5s2.243-5 5-5 5 2.243 5 5-2.243 5-5 5M39 0H7C4.243 0 2 2.243 2 5c0 .05.004.099.011.148L3.339 14H1a1 1 0 000 2h14a1 1 0 000-2H5.361l-1.36-9.069A3.004 3.004 0 017 2h31v38H21.92c-.487-3.387-3.4-6-6.92-6-3.86 0-7 3.14-7 7s3.14 7 7 7c3.52 0 6.433-2.613 6.92-6H39a1 1 0 001-1V1a1 1 0 00-1-1" fill-rule="evenodd"/></symbol><symbol viewBox="0 0 512 512" id="triangle-up" xmlns="http://www.w3.org/2000/svg"><path d="M413.1 327.3l-1.8-2.1-136-156.5c-4.6-5.3-11.5-8.6-19.2-8.6-7.7 0-14.6 3.4-19.2 8.6L101 324.9l-2.3 2.6C97 330 96 333 96 336.2c0 8.7 7.4 15.8 16.6 15.8h286.8c9.2 0 16.6-7.1 16.6-15.8 0-3.3-1.1-6.4-2.9-8.9z"/></symbol><symbol viewBox="0 0 16 16" id="viber" xmlns="http://www.w3.org/2000/svg"><path d="M8 1.335c-1.071.013-3.374.19-4.662 1.37-.958.948-1.292 2.35-1.331 4.084-.033 1.728-.072 4.973 3.058 5.856v1.346s-.02.538.337.648c.438.14.688-.275 1.105-.72l.778-.879c2.142.178 3.782-.232 3.97-.293.435-.139 2.883-.451 3.283-3.696.41-3.351-.2-5.463-1.301-6.418h-.007c-.332-.306-1.668-1.279-4.652-1.29 0 0-.222-.014-.578-.008zm.037.942a7.02 7.02 0 01.488.011c2.527.007 3.732.767 4.017 1.023.927.794 1.405 2.697 1.055 5.495-.332 2.713-2.317 2.885-2.685 3.002-.156.05-1.6.406-3.42.289 0 0-1.356 1.634-1.78 2.055-.067.074-.146.095-.196.085-.071-.018-.093-.107-.089-.229l.013-2.233c-2.655-.733-2.498-3.5-2.47-4.946.033-1.446.304-2.628 1.113-3.43 1.088-.982 3.043-1.115 3.953-1.122zm.2 1.446a.166.166 0 100 .332 3.136 3.136 0 012.242.883c.606.588.9 1.378.912 2.411 0 .092.074.167.167.167V7.51a.167.167 0 00.168-.165 3.588 3.588 0 00-1.009-2.646c-.66-.645-1.496-.977-2.48-.977zm-2.198.382a.523.523 0 00-.342.067H5.69a2.61 2.61 0 00-.637.523 1.003 1.003 0 00-.256.525.71.71 0 00.026.302l.01.006c.172.504.396.988.67 1.444a8.48 8.48 0 001.29 1.762l.015.022.024.017.015.018.017.015c.532.505 1.127.94 1.769 1.295.734.4 1.18.588 1.447.667v.004c.078.024.15.034.221.034.228-.016.444-.109.613-.262a2.53 2.53 0 00.517-.638v-.004c.128-.241.085-.469-.1-.623-.37-.323-.77-.61-1.195-.857-.285-.155-.574-.061-.69.095l-.25.315c-.129.156-.361.134-.361.134l-.007.004C7.093 8.527 6.63 6.772 6.63 6.772s-.022-.239.139-.36l.312-.252c.15-.122.254-.41.094-.695a7.498 7.498 0 00-.856-1.194.475.475 0 00-.28-.167zm2.486.495c-.221 0-.221.334.003.334A2.098 2.098 0 0110 5.572 1.94 1.94 0 0110.5 7a.168.168 0 00.167.165l.007.009a.169.169 0 00.167-.167c.015-.662-.191-1.218-.595-1.663C9.84 4.9 9.273 4.65 8.549 4.6h-.024zm.274.898c-.228-.006-.236.335-.01.341.55.029.816.306.851.877a.166.166 0 00.165.163h.007a.168.168 0 00.16-.178c-.039-.744-.445-1.164-1.166-1.202H8.8z"/></symbol><symbol viewBox="0 0 24 24" id="vk" xmlns="http://www.w3.org/2000/svg"><path d="M20 13c.24-.45 1.09-1.74 1.73-2.7C23.65 7.46 24 6.86 24 6.5a.5.5 0 00-.5-.5H19a.5.5 0 00-.49.41c-.25 1.38-3.49 5.34-4 5.59-.21 0-.5-.52-.5-1.5V6.28a1.18 1.18 0 00-.24-.93C13.43 5 12.92 5 11.5 5 8.92 5 8 5.77 8 6.5a.46.46 0 00.45.5S9 7.36 9 9.5a14.61 14.61 0 01-.13 2.5C7.6 11.77 5.84 8.6 5 6.32A.5.5 0 004.5 6h-4a.5.5 0 00-.5.59C.56 9.61 6.91 19 11 19h2c1.06 0 1.14-1.15 1.2-1.91s.11-1.09.3-1.09c.62 0 1.89 1.1 2.72 1.82S18.59 19 19 19h2.5c1.29 0 2.5 0 2.5-1 0-.38-.33-.82-2.23-3-.63-.69-1.48-1.64-1.77-2z" data-name="VK Logo"/></symbol><symbol viewBox="0 0 16 16" id="whatsapp" xmlns="http://www.w3.org/2000/svg"><path fill-rule="evenodd" clip-rule="evenodd" d="M12.269 3.755A5.947 5.947 0 008.035 2 5.994 5.994 0 002.05 7.985a5.98 5.98 0 00.799 2.992L2 14.077l3.173-.832c.877.477 1.86.728 2.86.728h.002a5.993 5.993 0 005.533-8.276 5.953 5.953 0 00-1.3-1.942zm-4.234 9.208h-.002c-.89 0-1.765-.24-2.532-.694l-.181-.108-1.883.494.502-1.835-.118-.188a4.965 4.965 0 01-.76-2.647 4.982 4.982 0 016.88-4.597c.604.25 1.152.618 1.613 1.081a4.946 4.946 0 011.455 3.52 4.982 4.982 0 01-4.974 4.974zm2.729-3.726c-.15-.075-.885-.436-1.022-.486-.137-.05-.236-.075-.336.074-.1.15-.387.486-.474.586-.087.1-.175.112-.324.038-.15-.075-.631-.233-1.203-.742a4.505 4.505 0 01-.832-1.036c-.087-.15-.009-.231.066-.306.068-.066.15-.174.224-.262.075-.087.1-.149.15-.249.05-.1.025-.187-.013-.262-.037-.075-.337-.811-.461-1.11-.121-.29-.244-.252-.336-.256a6.418 6.418 0 00-.286-.005.55.55 0 00-.4.186c-.137.15-.523.512-.523 1.248s.536 1.447.61 1.547c.075.1 1.055 1.61 2.555 2.258.358.154.636.246.853.315.358.114.684.098.942.06.287-.043.885-.362 1.01-.711.124-.35.124-.649.087-.711-.038-.063-.138-.101-.287-.176z"/></symbol></svg>