<svg xmlns="http://www.w3.org/2000/svg" width="215" height="219" viewBox="0 0 215 219"><g><g><g><path fill="#4d4c4c" d="M0 41h2v178H0z"/></g><g><path fill="#4d4c4c" d="M213 2h2v217h-2z"/></g><g><path fill="#4d4c4c" d="M1 0h214v2H1z"/></g><g><path fill="#4d4c4c" d="M1 217h183v2H1z"/></g><g><path fill="#4d4c4c" d="M182 145h2v74h-2z"/></g><g><path fill="#4d4c4c" d="M150 111h2v81h-2z"/></g><g><path fill="#4d4c4c" d="M61 190h91v2H61z"/></g><g><path fill="#4d4c4c" d="M30 163h31v2H30z"/></g><g><path fill="#4d4c4c" d="M89 163h32v2H89z"/></g><g><path fill="#4d4c4c" d="M30 164h2v53h-2z"/></g><g><path fill="#4d4c4c" d="M30 2h2v128h-2z"/></g><g><path fill="#4d4c4c" d="M0 0h2v13H0z"/></g><g><path fill="#4d4c4c" d="M59 31h2v134h-2z"/></g><g><path fill="#4d4c4c" d="M89 85h2v80h-2z"/></g><g><path fill="#4d4c4c" d="M119 111h2v54h-2z"/></g><g><path fill="#4d4c4c" d="M89 57h124v2H89z"/></g><g><path fill="#4d4c4c" d="M60 31h121v2H60z"/></g><g><path fill="#4d4c4c" d="M60 83h125v2H60z"/></g><g><path fill="#4d4c4c" d="M150 111h65v2h-65z"/></g></g></g></svg>