<?xml version="1.0" ?><svg id="Outline" viewBox="0 0 64 64" xmlns="http://www.w3.org/2000/svg"><g data-name="Outline" id="Outline-2"><path d="M26,44a4,4,0,1,0-4-4A4,4,0,0,0,26,44Zm0-6a2,2,0,1,1-2,2A2,2,0,0,1,26,38Z"/><path d="M38,48a4,4,0,1,0,4,4A4,4,0,0,0,38,48Zm0,6a2,2,0,1,1,2-2A2,2,0,0,1,38,54Z"/><path d="M22.882,52A3.11,3.11,0,0,0,28.2,54.194c2.941-3.055,8.9-9.1,11.918-12.072a3.04,3.04,0,0,0,0-4.243,3.088,3.088,0,0,0-4.239,0s-9.06,8.94-12.077,11.922A3.092,3.092,0,0,0,22.882,52Zm2.329-.78c3.051-2.951,12.082-11.928,12.082-11.928a1,1,0,1,1,1.41,1.419S29.728,49.737,26.78,52.788a1.109,1.109,0,1,1-1.569-1.568Z"/><path d="M19,62H45a5.006,5.006,0,0,0,5-5V29.962a4.974,4.974,0,0,0-1.421-3.492l-3.8-3.893A13.491,13.491,0,0,0,46.25,16.25a14.25,14.25,0,1,0-27,6.349l-3.809,3.864A4.972,4.972,0,0,0,14,29.973V57A5.006,5.006,0,0,0,19,62Zm.75-45.75a12.25,12.25,0,1,1,24.5.017c.314,8.054-8.73,14.465-16.23,11.553a3.825,3.825,0,0,1,.188-.986A11.246,11.246,0,1,0,20.75,16.25a11.128,11.128,0,0,0,.77,4.043l-.767.778A12.282,12.282,0,0,1,19.75,16.25ZM35.376,30.079A4.034,4.034,0,0,1,32,32a3.954,3.954,0,0,1-3.381-1.9A13.394,13.394,0,0,0,35.376,30.079Zm-6.054-4.991A3.978,3.978,0,0,1,32,24a3.933,3.933,0,0,1,2.7,1.082A9.375,9.375,0,0,1,29.322,25.088ZM23.093,18.7A9.244,9.244,0,1,1,41.25,16.253a9.07,9.07,0,0,1-.322,2.378s-3.975-4.044-5.28-5.41a5.059,5.059,0,0,0-7.14-.018C27.169,14.59,23.093,18.7,23.093,18.7ZM16,29.973a2.98,2.98,0,0,1,.864-2.105S26.7,17.957,29.933,14.607a3.034,3.034,0,0,1,4.283.01c1.457,1.525,5.893,6.038,5.893,6.038a9.226,9.226,0,0,1-3.479,3.576A5.926,5.926,0,0,0,32,22a6,6,0,0,0-.015,12,6.011,6.011,0,0,0,5.843-4.788,14.767,14.767,0,0,0,5.892-4.86l3.43,3.514a2.986,2.986,0,0,1,.853,2.1V57a3,3,0,0,1-3,3H19a3,3,0,0,1-3-3Z"/></g></svg>