<?xml version="1.0" ?><svg viewBox="0 0 32 32" xmlns="http://www.w3.org/2000/svg"><title/><g data-name="Layer 2" id="Layer_2"><path d="M29,8.5H4.86a.5.5,0,0,0-.5.5v2.3H3a.5.5,0,0,0-.5.5V23a.51.51,0,0,0,.5.5H25.29a.5.5,0,0,0,.5-.5V20.7H29a.5.5,0,0,0,.5-.5V9A.5.5,0,0,0,29,8.5Zm-4.21,14H3.5V12.3H24.79V22.5Zm3.71-2.8H25.79V11.8a.58.58,0,0,0,0-.19.51.51,0,0,0-.27-.27.43.43,0,0,0-.19,0H5.36V9.5H28.5Z"/><path d="M6.71,13.17H4.86a.5.5,0,0,0-.5.5.5.5,0,0,0,.5.5H6.71a.5.5,0,0,0,.5-.5A.5.5,0,0,0,6.71,13.17Z"/><path d="M23.43,20.63H21.57a.5.5,0,0,0-.5.5.5.5,0,0,0,.5.5h1.86a.5.5,0,0,0,.5-.5A.5.5,0,0,0,23.43,20.63Z"/><path d="M14.14,14.1a3.3,3.3,0,1,0,3.29,3.3A3.29,3.29,0,0,0,14.14,14.1Zm0,5.6a2.3,2.3,0,1,1,2.29-2.3A2.29,2.29,0,0,1,14.14,19.7Z"/><path d="M23.43,13.17H21.57a.5.5,0,0,0-.5.5.5.5,0,0,0,.5.5h1.86a.5.5,0,0,0,.5-.5A.5.5,0,0,0,23.43,13.17Z"/><path d="M6.71,20.63H4.86a.5.5,0,0,0-.5.5.5.5,0,0,0,.5.5H6.71a.5.5,0,0,0,.5-.5A.5.5,0,0,0,6.71,20.63Z"/></g></svg>